<?xml version="1.0" encoding="UTF-8"?>
<svg id="Layer_1" xmlns="http://www.w3.org/2000/svg" version="1.1" viewBox="0 0 200 200">
  <!-- Generator: Adobe Illustrator 30.4.0, SVG Export Plug-In . SVG Version: 2.1.4 Build 226)  -->
  <defs>
    <style>
      .st0 {
        fill: #efefef;
      }
    </style>
  </defs>
  <path class="st0" d="M180.9,155.1c0,2.8-.9,5.6-1.9,8-2.8,5.2-8.9,8.9-15.1,8.9H36c-6.1,0-12.2-3.3-15.1-8.9-1.4-2.4-1.9-5.2-1.9-8s.9-5.6,2.4-8L86.8,35.5c1.4-2.4,3.3-4.2,5.6-5.6s5.2-1.9,7.5-1.9,5.2.5,7.5,1.9c2.4,1.4,4.2,3.3,5.6,5.6l65.4,111.5c1.4,2.4,2.4,5.2,2.4,8Z"/>
</svg>