<?xml version="1.0" encoding="UTF-8"?>
<svg id="uuid-5222b6f2-06b1-49df-a437-400c8c0fdf81" data-name="Layer 1" xmlns="http://www.w3.org/2000/svg" width="4096" height="4096" viewBox="0 0 4096 4096">
  <rect x="62.94" y="62.94" width="3970.11" height="3970.11" rx="609.21" ry="609.21" fill="#e6e6e6"/>
  <rect x="3394.05" y="588.22" width="113.73" height="1763.47" rx="56.86" ry="56.86" fill="#ccc"/>
  <path d="M3536.76,1526.31h-171.7c-22.3,0-40.37-18.08-40.37-40.37,0,0,21.54-119.53,21.54-159.86,0-40.33-21.54-159.86-21.54-159.86,0-22.3,18.08-40.37,40.37-40.37h171.7c22.3,0,40.37,18.08,40.37,40.37,0,0-21.54,119.53-21.54,159.86,0,40.33,21.54,159.86,21.54,159.86,0,22.3-18.08,40.37-40.37,40.37Z" fill="#333"/>
</svg>