<svg width="48" height="48" viewBox="0 0 48 48" fill="none" xmlns="http://www.w3.org/2000/svg">
<path d="M33.087 6C38.9106 6.00038 43.4406 10.857 43.4991 16.5605C43.6031 26.9902 35.7534 34.4067 27.3682 40.3184L25.6866 41.4805C25.1891 41.8188 24.6007 42 23.9991 42C23.3978 41.9998 22.8108 41.8186 22.3135 41.4805C13.3277 35.3815 4.38911 27.6854 4.50104 16.5605C4.55953 10.857 9.0895 6.00036 14.9131 6C18.4879 6 21.1179 7.76951 22.796 9.43555C23.2639 9.90019 23.663 10.3657 23.9991 10.793C24.3353 10.3655 24.7358 9.90053 25.2042 9.43555C26.8822 7.76952 29.5123 6 33.087 6ZM33.087 9C30.5755 9 28.661 10.2305 27.3174 11.5645C26.6489 12.2282 26.1447 12.8957 25.8096 13.3965C25.6431 13.6455 25.521 13.8511 25.4424 13.9883C25.4035 14.0563 25.3753 14.1072 25.3585 14.1387C25.35 14.1545 25.3437 14.1664 25.3409 14.1719L25.3389 14.1699C25.0848 14.6779 24.5671 15 23.9991 15C23.4313 14.9996 22.9132 14.6778 22.6592 14.1699V14.1719C22.6564 14.1664 22.6501 14.1545 22.6417 14.1387C22.6249 14.1072 22.5966 14.0563 22.5577 13.9883C22.4791 13.851 22.3552 13.6456 22.1885 13.3965C21.8535 12.8958 21.351 12.228 20.6827 11.5645C19.3391 10.2305 17.4246 9 14.9131 9C10.8449 9.00036 7.54186 12.4202 7.49909 16.5918C7.41106 25.3798 14.0238 31.9764 22.3194 37.8359L23.9991 39H24.001C33.0643 32.848 40.594 25.9657 40.501 16.5918C40.4583 12.4202 37.1552 9.00038 33.087 9Z" fill="#FEFEFE"/>
</svg>
