<svg width="24" height="24" viewBox="0 0 24 24" fill="none" xmlns="http://www.w3.org/2000/svg">
<path d="M6.375 7.5L8.25 7.5C8.66421 7.5 9 7.83579 9 8.25C9 8.66421 8.66421 9 8.25 9L6.375 9C6.07663 9 5.79008 9.11812 5.5791 9.3291C5.36812 9.54008 5.25 9.82663 5.25 10.125L5.25 19.875C5.25 20.1734 5.36812 20.4599 5.5791 20.6709C5.79008 20.8819 6.07663 21 6.375 21L17.625 21C17.9234 21 18.2099 20.8819 18.4209 20.6709C18.6319 20.4599 18.75 20.1734 18.75 19.875L18.75 10.125C18.75 9.82663 18.6319 9.54008 18.4209 9.3291C18.2099 9.11812 17.9234 9 17.625 9L15.75 9C15.3358 9 15 8.66421 15 8.25C15 7.83579 15.3358 7.5 15.75 7.5L17.625 7.5C18.3212 7.5 18.9892 7.77627 19.4814 8.26855C19.9737 8.76084 20.25 9.42881 20.25 10.125L20.25 19.875C20.25 20.5712 19.9737 21.2392 19.4814 21.7314C18.9892 22.2237 18.3212 22.5 17.625 22.5L6.375 22.5C5.67881 22.5 5.01084 22.2237 4.51855 21.7314C4.02627 21.2392 3.75 20.5712 3.75 19.875L3.75 10.125C3.75 9.42881 4.02627 8.76084 4.51855 8.26855C5.01084 7.77627 5.67881 7.5 6.375 7.5Z" fill="#EFEFEF"/>
<path d="M16.2803 12.2197C16.5732 12.5126 16.5732 12.9874 16.2803 13.2803L12.5303 17.0303C12.2374 17.3232 11.7627 17.3232 11.4698 17.0303L7.71978 13.2803C7.42689 12.9874 7.42689 12.5126 7.71978 12.2197C8.01267 11.9268 8.48744 11.9268 8.78033 12.2197L11.2501 14.6895L11.2501 2.25C11.2501 1.83579 11.5858 1.5 12.0001 1.5C12.4143 1.5 12.7501 1.83579 12.7501 2.25L12.7501 14.6895L15.2198 12.2197C15.5127 11.9268 15.9874 11.9268 16.2803 12.2197Z" fill="#EFEFEF"/>
</svg>
