<svg width="45" height="38" viewBox="0 0 45 38" fill="none" xmlns="http://www.w3.org/2000/svg">
<path d="M25.457 5.26953L18.8516 11.875H11.2812C10.8088 11.875 10.3558 12.0627 10.0217 12.3967C9.68767 12.7308 9.5 13.1838 9.5 13.6562V24.3437C9.5 24.8162 9.68767 25.2692 10.0217 25.6033C10.3558 25.9373 10.8088 26.125 11.2812 26.125H18.856L25.457 32.7305C26.5703 33.8437 28.5 33.0622 28.5 31.4687V6.53125C28.5 4.93777 26.5703 4.15625 25.457 5.26953Z" fill="#EFEFEF"/>
<rect x="35.1094" y="13" width="14" height="3" rx="1.5" transform="rotate(45 35.1094 13)" fill="#FEFEFE"/>
<rect x="45.0088" y="15.1213" width="14" height="3" rx="1.5" transform="rotate(135 45.0088 15.1213)" fill="#FEFEFE"/>
</svg>
