<svg width="49" height="49" viewBox="0 0 49 49" fill="none" xmlns="http://www.w3.org/2000/svg">
<path d="M37.4485 10.4485C38.0465 9.8505 39.0158 9.8505 39.6138 10.4485L44.2075 15.0422C44.8055 15.6402 44.8055 16.6095 44.2075 17.2075L39.6138 21.8013C39.0158 22.3993 38.0465 22.3993 37.4485 21.8013C36.8505 21.2033 36.8505 20.234 37.4485 19.636L40.9596 16.1249L37.4485 12.6138C36.8505 12.0158 36.8505 11.0465 37.4485 10.4485Z" fill="#FEFEFE"/>
<path d="M10.2922 27.2922C10.8902 26.6943 11.8595 26.6943 12.4575 27.2922C13.0555 27.8902 13.0555 28.8595 12.4575 29.4575L8.94642 32.9686L12.4575 36.4797C13.0555 37.0777 13.0555 38.047 12.4575 38.645C11.8595 39.243 10.8902 39.243 10.2922 38.645L5.69849 34.0513C5.1005 33.4533 5.1005 32.484 5.69849 31.886L10.2922 27.2922Z" fill="#FEFEFE"/>
<rect x="5" y="14.5468" width="37" height="3" rx="1.5" fill="#FEFEFE"/>
<rect x="6" y="31.5468" width="39" height="3" rx="1.5" fill="#FEFEFE"/>
</svg>
