<svg width="49" height="49" viewBox="0 0 49 49" fill="none" xmlns="http://www.w3.org/2000/svg">
<path d="M37.1985 28.0111C37.7965 27.4131 38.7658 27.4131 39.3638 28.0111L43.9575 32.6049C44.5555 33.2029 44.5555 34.1722 43.9575 34.7701L39.3638 39.3639C38.7658 39.9619 37.7965 39.9619 37.1985 39.3639C36.6005 38.7659 36.6005 37.7966 37.1985 37.1986L40.7096 33.6875L37.1985 30.1764C36.6005 29.5784 36.6005 28.6091 37.1985 28.0111ZM37.1985 9.63611C37.7965 9.03812 38.7658 9.03812 39.3638 9.63611L43.9575 14.2299C44.5555 14.8279 44.5555 15.7972 43.9575 16.3951L39.3638 20.9889C38.7658 21.5869 37.7965 21.5869 37.1985 20.9889C36.6005 20.3909 36.6005 19.4216 37.1985 18.8236L40.7096 15.3125L37.1985 11.8014C36.6005 11.2034 36.6005 10.2341 37.1985 9.63611Z" fill="#FEFEFE"/>
<rect x="5" y="14" width="36" height="3" rx="1.5" fill="#FEFEFE"/>
<rect x="5" y="32" width="36" height="3" rx="1.5" fill="#FEFEFE"/>
</svg>
