<svg width="49" height="49" viewBox="0 0 49 49" fill="none" xmlns="http://www.w3.org/2000/svg">
<path d="M19.9062 41.3438H15.3125C14.9064 41.3438 14.5169 41.1824 14.2297 40.8953C13.9426 40.6081 13.7812 40.2186 13.7812 39.8125V9.1875C13.7812 8.78139 13.9426 8.39191 14.2297 8.10474C14.5169 7.81758 14.9064 7.65625 15.3125 7.65625H19.9062C20.3124 7.65625 20.7018 7.81758 20.989 8.10474C21.2762 8.39191 21.4375 8.78139 21.4375 9.1875V39.8125C21.4375 40.2186 21.2762 40.6081 20.989 40.8953C20.7018 41.1824 20.3124 41.3438 19.9062 41.3438ZM33.6875 41.3438H29.0938C28.6876 41.3438 28.2982 41.1824 28.011 40.8953C27.7238 40.6081 27.5625 40.2186 27.5625 39.8125V9.1875C27.5625 8.78139 27.7238 8.39191 28.011 8.10474C28.2982 7.81758 28.6876 7.65625 29.0938 7.65625H33.6875C34.0936 7.65625 34.4831 7.81758 34.7703 8.10474C35.0574 8.39191 35.2188 8.78139 35.2188 9.1875V39.8125C35.2188 40.2186 35.0574 40.6081 34.7703 40.8953C34.4831 41.1824 34.0936 41.3438 33.6875 41.3438Z" fill="#FEFEFE"/>
</svg>
