<svg width="49" height="48" viewBox="0 0 49 48" fill="none" xmlns="http://www.w3.org/2000/svg">
<path d="M12.7286 41.25C12.141 41.2489 11.5638 41.098 11.0538 40.8122C9.90535 40.1747 9.19141 38.9372 9.19141 37.5937V10.4062C9.19141 9.05905 9.90535 7.82529 11.0538 7.18779C11.5759 6.89383 12.1691 6.74266 12.7713 6.75008C13.3735 6.7575 13.9626 6.92324 14.4771 7.22998L38.1971 21.1387C38.6915 21.4424 39.099 21.864 39.3815 22.3642C39.6639 22.8643 39.8121 23.4265 39.8121 23.9981C39.8121 24.5697 39.6639 25.1319 39.3815 25.632C39.099 26.1322 38.6915 26.5538 38.1971 26.8575L14.4733 40.77C13.9468 41.0818 13.3438 41.2477 12.7286 41.25Z" fill="#FEFEFE"/>
</svg>
