<svg width="49" height="48" viewBox="0 0 49 48" fill="none" xmlns="http://www.w3.org/2000/svg">
<path d="M38.2812 6C37.8751 6 37.4857 6.15804 37.1985 6.43934C36.9113 6.72064 36.75 7.10218 36.75 7.5V20.2903L14.4732 7.22906C13.9587 6.92246 13.3695 6.75688 12.7673 6.74963C12.1651 6.74237 11.572 6.89371 11.0499 7.18781C9.90145 7.82531 9.1875 9.05906 9.1875 10.4062V37.5938C9.1875 38.9409 9.90145 40.1747 11.0499 40.8122C11.5721 41.1061 12.1652 41.2572 12.7674 41.2498C13.3696 41.2423 13.9587 41.0766 14.4732 40.77L36.75 27.7097V40.5C36.75 40.8978 36.9113 41.2794 37.1985 41.5607C37.4857 41.842 37.8751 42 38.2812 42C38.6874 42 39.0768 41.842 39.364 41.5607C39.6512 41.2794 39.8125 40.8978 39.8125 40.5V7.5C39.8125 7.10218 39.6512 6.72064 39.364 6.43934C39.0768 6.15804 38.6874 6 38.2812 6Z" fill="#FEFEFE"/>
</svg>
