<svg width="49" height="48" viewBox="0 0 49 48" fill="none" xmlns="http://www.w3.org/2000/svg">
<path d="M10.7188 6C11.1249 6 11.5143 6.15804 11.8015 6.43934C12.0887 6.72064 12.25 7.10218 12.25 7.5V20.2903L34.5268 7.22906C35.0413 6.92246 35.6305 6.75688 36.2327 6.74963C36.8349 6.74237 37.428 6.89371 37.9501 7.18781C39.0986 7.82531 39.8125 9.06281 39.8125 10.4062V37.5938C39.8125 38.9409 39.0986 40.1747 37.9501 40.8122C37.4279 41.1061 36.8348 41.2572 36.2326 41.2498C35.6304 41.2423 35.0413 41.0766 34.5268 40.77L12.25 27.7097V40.5C12.25 40.8978 12.0887 41.2794 11.8015 41.5607C11.5143 41.842 11.1249 42 10.7188 42C10.3126 42 9.92316 41.842 9.63599 41.5607C9.34883 41.2794 9.1875 40.8978 9.1875 40.5V7.5C9.1875 7.10218 9.34883 6.72064 9.63599 6.43934C9.92316 6.15804 10.3126 6 10.7188 6Z" fill="#FEFEFE"/>
</svg>
