<svg width="49" height="49" viewBox="0 0 49 49" fill="none" xmlns="http://www.w3.org/2000/svg">
<path d="M29.5422 10.4017C30.1402 9.80375 31.1095 9.80375 31.7075 10.4017L36.3013 14.9955C36.8993 15.5935 36.8993 16.5628 36.3013 17.1608L31.7075 21.7545C31.1095 22.3525 30.1402 22.3525 29.5422 21.7545C28.9443 21.1565 28.9443 20.1872 29.5422 19.5892L33.0534 16.0781L29.5422 12.567C28.9443 11.969 28.9443 10.9997 29.5422 10.4017Z" fill="#FEFEFE"/>
<path d="M17.2924 27.2455C17.8903 26.6475 18.8597 26.6475 19.4576 27.2455C20.0556 27.8435 20.0556 28.8128 19.4576 29.4108L15.9465 32.9219L19.4576 36.433C20.0556 37.031 20.0556 38.0003 19.4576 38.5983C18.8597 39.1963 17.8903 39.1963 17.2924 38.5983L12.6986 34.0045C12.1006 33.4065 12.1006 32.4372 12.6986 31.8392L17.2924 27.2455ZM4.59375 25.2656V23.7304L4.60571 23.2758C4.72433 21.0081 5.67814 18.8578 7.29138 17.2445C9.01194 15.5239 11.344 14.5541 13.7773 14.5469H33.6875C34.5332 14.5469 35.2188 15.2324 35.2188 16.0781C35.2188 16.9238 34.5332 17.6094 33.6875 17.6094H13.7852L13.1811 17.6413C11.7793 17.784 10.4617 18.4048 9.45667 19.4098C8.30833 20.5581 7.66125 22.1144 7.65625 23.7384V25.2656C7.65625 26.1113 6.97069 26.7969 6.125 26.7969C5.27931 26.7969 4.59375 26.1113 4.59375 25.2656Z" fill="#FEFEFE"/>
<path d="M41.3438 23.7344C41.3438 22.8887 42.0293 22.2031 42.875 22.2031C43.7207 22.2031 44.4063 22.8887 44.4063 23.7344V25.2696C44.399 27.7028 43.4292 30.0349 41.7086 31.7555C39.9881 33.4761 37.656 34.4459 35.2227 34.4531H15.3125C14.4668 34.4531 13.7812 33.7676 13.7812 32.9219C13.7812 32.0762 14.4668 31.3906 15.3125 31.3906H35.2148C36.8387 31.3856 38.395 30.7385 39.5433 29.5902C40.6907 28.4428 41.3377 26.8881 41.3438 25.2656V23.7344Z" fill="#FEFEFE"/>
<circle cx="43" cy="16" r="3" fill="#FEFEFE"/>
</svg>
