<svg width="49" height="49" viewBox="0 0 49 49" fill="none" xmlns="http://www.w3.org/2000/svg">
<path d="M37.1986 28.0111C37.7966 27.4131 38.7659 27.4131 39.3639 28.0111L43.9576 32.6049C44.5556 33.2029 44.5556 34.1722 43.9576 34.7701L39.3639 39.3639C38.7659 39.9619 37.7966 39.9619 37.1986 39.3639C36.6006 38.7659 36.6006 37.7966 37.1986 37.1986L40.7097 33.6875L37.1986 30.1764C36.6006 29.5784 36.6006 28.6091 37.1986 28.0111ZM23.226 23.6506C23.695 22.947 24.6457 22.7569 25.3494 23.226C26.053 23.695 26.2431 24.6457 25.774 25.3494L21.922 31.1274C21.083 32.3858 19.9457 33.4185 18.6123 34.1321C17.279 34.8455 15.7899 35.2187 14.2777 35.2188H6.125C5.27931 35.2188 4.59375 34.5332 4.59375 33.6875C4.59375 32.8418 5.27931 32.1563 6.125 32.1563H14.2777C15.286 32.1562 16.2798 31.9082 17.1687 31.4325C18.0576 30.9568 18.8146 30.2675 19.3739 29.4287L23.226 23.6506ZM37.1986 9.63611C37.7966 9.03812 38.7659 9.03812 39.3639 9.63611L43.9576 14.2299C44.5556 14.8279 44.5556 15.7972 43.9576 16.3951L39.3639 20.9889C38.7659 21.5869 37.7966 21.5869 37.1986 20.9889C36.6006 20.3909 36.6006 19.4216 37.1986 18.8236L40.7097 15.3125L37.1986 11.8014C36.6006 11.2034 36.6006 10.2341 37.1986 9.63611Z" fill="#FEFEFE"/>
<path d="M14.2777 13.7812C15.7899 13.7813 17.279 14.1545 18.6123 14.8679C19.9457 15.5815 21.083 16.6142 21.922 17.8726L29.6261 29.4287L29.8454 29.7358C30.3773 30.4359 31.0534 31.0162 31.8313 31.4325C32.7202 31.9082 33.714 32.1562 34.7223 32.1562H39.8125C40.6582 32.1562 41.3438 32.8418 41.3438 33.6875C41.3438 34.5332 40.6582 35.2188 39.8125 35.2188H34.7223C33.2101 35.2187 31.721 34.8455 30.3877 34.1321C29.2213 33.5079 28.2047 32.6399 27.407 31.59L27.078 31.1274L19.3739 19.5713C18.8146 18.7325 18.0576 18.0432 17.1687 17.5675C16.2798 17.0918 15.286 16.8438 14.2777 16.8438H6.125C5.27931 16.8438 4.59375 16.1582 4.59375 15.3125C4.59375 14.4668 5.27931 13.7812 6.125 13.7812H14.2777ZM39.8125 13.7812C40.6582 13.7812 41.3438 14.4668 41.3438 15.3125C41.3438 16.1582 40.6582 16.8438 39.8125 16.8438H34.7223C33.714 16.8438 32.7202 17.0918 31.8313 17.5675C31.0534 17.9838 30.3773 18.5641 29.8454 19.2642L29.6261 19.5713L28.8365 20.7556C28.3675 21.4592 27.4168 21.6492 26.7131 21.1803C26.0096 20.7113 25.8195 19.7605 26.2885 19.0569L27.078 17.8726L27.407 17.41C28.2048 16.3601 29.2213 15.4921 30.3877 14.8679C31.721 14.1545 33.2101 13.7813 34.7223 13.7812H39.8125Z" fill="#FEFEFE"/>
</svg>
