<svg width="121" height="121" viewBox="0 0 121 121" fill="none" xmlns="http://www.w3.org/2000/svg">
<path d="M90.0584 89.332C92.9298 89.332 95.2576 91.6598 95.2576 94.5312C95.2576 97.4027 92.9298 99.7305 90.0584 99.7305H24.1055C21.234 99.7305 18.9062 97.4027 18.9062 94.5312C18.9062 91.6598 21.234 89.332 24.1055 89.332H90.0584ZM49.0414 66.6445C51.9129 66.6445 54.2406 68.9723 54.2406 71.8438C54.2406 74.7152 51.9129 77.043 49.0414 77.043H24.1055C21.234 77.043 18.9062 74.7152 18.9062 71.8438C18.9062 68.9723 21.234 66.6445 24.1055 66.6445H49.0414ZM96.8945 43.957C99.766 43.957 102.094 46.2848 102.094 49.1562C102.094 52.0277 99.766 54.3555 96.8945 54.3555H24.1055C21.234 54.3555 18.9062 52.0277 18.9062 49.1562C18.9062 46.2848 21.234 43.957 24.1055 43.957H96.8945ZM76.3861 21.2695C79.2575 21.2695 81.5853 23.5973 81.5853 26.4688C81.5853 29.3402 79.2575 31.668 76.3861 31.668H24.1055C21.234 31.668 18.9062 29.3402 18.9062 26.4688C18.9062 23.5973 21.234 21.2695 24.1055 21.2695H76.3861Z" fill="#FEFEFE"/>
</svg>
