<svg width="121" height="121" viewBox="0 0 121 121" fill="none" xmlns="http://www.w3.org/2000/svg">
<path d="M90.0584 89.332C92.9298 89.332 95.2576 91.6598 95.2576 94.5312C95.2576 97.4027 92.9298 99.7305 90.0584 99.7305H24.1055C21.234 99.7305 18.9062 97.4027 18.9062 94.5312C18.9062 91.6598 21.234 89.332 24.1055 89.332H90.0584ZM49.0414 66.6445C51.9129 66.6445 54.2406 68.9723 54.2406 71.8437C54.2406 74.7152 51.9129 77.043 49.0414 77.043H24.1055C21.234 77.043 18.9062 74.7152 18.9062 71.8437C18.9062 68.9723 21.234 66.6445 24.1055 66.6445H49.0414ZM96.8945 43.957C99.766 43.957 102.094 46.2848 102.094 49.1562C102.094 52.0277 99.766 54.3555 96.8945 54.3555H24.1055C21.234 54.3555 18.9062 52.0277 18.9062 49.1562C18.9062 46.2848 21.234 43.957 24.1055 43.957H96.8945ZM76.3861 21.2695C79.2575 21.2695 81.5853 23.5973 81.5853 26.4687C81.5853 29.3402 79.2575 31.668 76.3861 31.668H24.1055C21.234 31.668 18.9062 29.3402 18.9062 26.4687C18.9062 23.5973 21.234 21.2695 24.1055 21.2695H76.3861Z" fill="#FEFEFE"/>
<path d="M96.5014 30.3045C97.1782 30.9811 98.1941 30.8312 98.7629 30.2624C99.3314 29.6935 99.4808 28.6783 98.8043 28.0016L93.1654 22.3627C92.5308 21.7283 91.5985 21.8199 91.0158 22.3026L90.9046 22.4041L90.8024 22.516C90.3198 23.0987 90.2281 24.0311 90.8625 24.6656L96.5014 30.3045Z" fill="#FEFEFE" stroke="#FEFEFE" stroke-width="2" stroke-linecap="round" stroke-linejoin="round"/>
<path d="M90.8627 28.0015C90.1861 28.6783 90.336 29.6942 90.9049 30.263C91.4737 30.8316 92.4889 30.9809 93.1657 30.3044L98.8046 24.6655C99.4389 24.031 99.3473 23.0986 98.8646 22.5159L98.7631 22.4047L98.6513 22.3025C98.0685 21.8199 97.1362 21.7283 96.5016 22.3626L90.8627 28.0015Z" fill="#FEFEFE" stroke="#FEFEFE" stroke-width="2" stroke-linecap="round" stroke-linejoin="round"/>
</svg>
