<svg width="42" height="38" viewBox="0 0 42 38" fill="none" xmlns="http://www.w3.org/2000/svg">
<path d="M25.457 5.26953L18.8516 11.875H11.2812C10.8088 11.875 10.3558 12.0627 10.0217 12.3967C9.68767 12.7308 9.5 13.1838 9.5 13.6562V24.3437C9.5 24.8162 9.68767 25.2692 10.0217 25.6033C10.3558 25.9373 10.8088 26.125 11.2812 26.125H18.856L25.457 32.7305C26.5703 33.8437 28.5 33.0622 28.5 31.4687V6.53125C28.5 4.93777 26.5703 4.15625 25.457 5.26953Z" fill="#EFEFEF"/>
<path d="M35 24C37.7614 24 40 21.7614 40 19C40 16.2386 37.7614 14 35 14" stroke="#EFEFEF" stroke-width="2.5" stroke-miterlimit="3.99393" stroke-linecap="round"/>
</svg>
